<?xml version="1.0" encoding="utf-8"?>
<svg xmlns="http://www.w3.org/2000/svg" xmlns:xlink="http://www.w3.org/1999/xlink" style="margin: auto; background: rgb(255, 255, 255); display: block; shape-rendering: auto;" width="204px" height="204px" viewBox="0 0 100 100" preserveAspectRatio="xMidYMid">
<g transform="rotate(0 50 50)">
  <rect x="47.5" y="22" rx="2.5" ry="4.48" width="5" height="16" fill="#000000">
    <animate attributeName="opacity" values="1;0" keyTimes="0;1" dur="0.641025641025641s" begin="-0.6033182503770739s" repeatCount="indefinite"></animate>
  </rect>
</g><g transform="rotate(21.176470588235293 50 50)">
  <rect x="47.5" y="22" rx="2.5" ry="4.48" width="5" height="16" fill="#000000">
    <animate attributeName="opacity" values="1;0" keyTimes="0;1" dur="0.641025641025641s" begin="-0.5656108597285068s" repeatCount="indefinite"></animate>
  </rect>
</g><g transform="rotate(42.35294117647059 50 50)">
  <rect x="47.5" y="22" rx="2.5" ry="4.48" width="5" height="16" fill="#000000">
    <animate attributeName="opacity" values="1;0" keyTimes="0;1" dur="0.641025641025641s" begin="-0.5279034690799397s" repeatCount="indefinite"></animate>
  </rect>
</g><g transform="rotate(63.529411764705884 50 50)">
  <rect x="47.5" y="22" rx="2.5" ry="4.48" width="5" height="16" fill="#000000">
    <animate attributeName="opacity" values="1;0" keyTimes="0;1" dur="0.641025641025641s" begin="-0.4901960784313726s" repeatCount="indefinite"></animate>
  </rect>
</g><g transform="rotate(84.70588235294117 50 50)">
  <rect x="47.5" y="22" rx="2.5" ry="4.48" width="5" height="16" fill="#000000">
    <animate attributeName="opacity" values="1;0" keyTimes="0;1" dur="0.641025641025641s" begin="-0.45248868778280543s" repeatCount="indefinite"></animate>
  </rect>
</g><g transform="rotate(105.88235294117646 50 50)">
  <rect x="47.5" y="22" rx="2.5" ry="4.48" width="5" height="16" fill="#000000">
    <animate attributeName="opacity" values="1;0" keyTimes="0;1" dur="0.641025641025641s" begin="-0.41478129713423834s" repeatCount="indefinite"></animate>
  </rect>
</g><g transform="rotate(127.05882352941177 50 50)">
  <rect x="47.5" y="22" rx="2.5" ry="4.48" width="5" height="16" fill="#000000">
    <animate attributeName="opacity" values="1;0" keyTimes="0;1" dur="0.641025641025641s" begin="-0.3770739064856712s" repeatCount="indefinite"></animate>
  </rect>
</g><g transform="rotate(148.23529411764707 50 50)">
  <rect x="47.5" y="22" rx="2.5" ry="4.48" width="5" height="16" fill="#000000">
    <animate attributeName="opacity" values="1;0" keyTimes="0;1" dur="0.641025641025641s" begin="-0.3393665158371041s" repeatCount="indefinite"></animate>
  </rect>
</g><g transform="rotate(169.41176470588235 50 50)">
  <rect x="47.5" y="22" rx="2.5" ry="4.48" width="5" height="16" fill="#000000">
    <animate attributeName="opacity" values="1;0" keyTimes="0;1" dur="0.641025641025641s" begin="-0.30165912518853694s" repeatCount="indefinite"></animate>
  </rect>
</g><g transform="rotate(190.58823529411765 50 50)">
  <rect x="47.5" y="22" rx="2.5" ry="4.48" width="5" height="16" fill="#000000">
    <animate attributeName="opacity" values="1;0" keyTimes="0;1" dur="0.641025641025641s" begin="-0.26395173453996984s" repeatCount="indefinite"></animate>
  </rect>
</g><g transform="rotate(211.76470588235293 50 50)">
  <rect x="47.5" y="22" rx="2.5" ry="4.48" width="5" height="16" fill="#000000">
    <animate attributeName="opacity" values="1;0" keyTimes="0;1" dur="0.641025641025641s" begin="-0.22624434389140272s" repeatCount="indefinite"></animate>
  </rect>
</g><g transform="rotate(232.94117647058823 50 50)">
  <rect x="47.5" y="22" rx="2.5" ry="4.48" width="5" height="16" fill="#000000">
    <animate attributeName="opacity" values="1;0" keyTimes="0;1" dur="0.641025641025641s" begin="-0.1885369532428356s" repeatCount="indefinite"></animate>
  </rect>
</g><g transform="rotate(254.11764705882354 50 50)">
  <rect x="47.5" y="22" rx="2.5" ry="4.48" width="5" height="16" fill="#000000">
    <animate attributeName="opacity" values="1;0" keyTimes="0;1" dur="0.641025641025641s" begin="-0.15082956259426847s" repeatCount="indefinite"></animate>
  </rect>
</g><g transform="rotate(275.29411764705884 50 50)">
  <rect x="47.5" y="22" rx="2.5" ry="4.48" width="5" height="16" fill="#000000">
    <animate attributeName="opacity" values="1;0" keyTimes="0;1" dur="0.641025641025641s" begin="-0.11312217194570136s" repeatCount="indefinite"></animate>
  </rect>
</g><g transform="rotate(296.47058823529414 50 50)">
  <rect x="47.5" y="22" rx="2.5" ry="4.48" width="5" height="16" fill="#000000">
    <animate attributeName="opacity" values="1;0" keyTimes="0;1" dur="0.641025641025641s" begin="-0.07541478129713423s" repeatCount="indefinite"></animate>
  </rect>
</g><g transform="rotate(317.6470588235294 50 50)">
  <rect x="47.5" y="22" rx="2.5" ry="4.48" width="5" height="16" fill="#000000">
    <animate attributeName="opacity" values="1;0" keyTimes="0;1" dur="0.641025641025641s" begin="-0.03770739064856712s" repeatCount="indefinite"></animate>
  </rect>
</g><g transform="rotate(338.8235294117647 50 50)">
  <rect x="47.5" y="22" rx="2.5" ry="4.48" width="5" height="16" fill="#000000">
    <animate attributeName="opacity" values="1;0" keyTimes="0;1" dur="0.641025641025641s" begin="0s" repeatCount="indefinite"></animate>
  </rect>
</g>
<!-- [ldio] generated by https://loading.io/ --></svg>